<svg width="32" height="32" viewBox="0 0 32 32" fill="none" xmlns="http://www.w3.org/2000/svg">
  <rect width="32" height="32" rx="8" fill="url(#paint0_linear_1_1)"/>
  <path d="M8 10.5C8 9.11929 9.11929 8 10.5 8H13.5C14.8807 8 16 9.11929 16 10.5V21.5C16 22.8807 14.8807 24 13.5 24H10.5C9.11929 24 8 22.8807 8 21.5V10.5Z" fill="white"/>
  <path d="M18 10.5C18 9.11929 19.1193 8 20.5 8H23.5C24.8807 8 26 9.11929 26 10.5V21.5C26 22.8807 24.8807 24 23.5 24H20.5C19.1193 24 18 22.8807 18 21.5V10.5Z" fill="white" fill-opacity="0.7"/>
  <defs>
    <linearGradient id="paint0_linear_1_1" x1="0" y1="0" x2="32" y2="32" gradientUnits="userSpaceOnUse">
      <stop stop-color="#4A67F5"/>
      <stop offset="1" stop-color="#8658F7"/>
    </linearGradient>
  </defs>
</svg>