<svg width="1440" height="800" viewBox="0 0 1440 800" fill="none" xmlns="http://www.w3.org/2000/svg">
  <path d="M1086.5 418C1124.5 461.2 1158 515.667 1129 573.5C1079.83 668.5 940.5 705 833 671.5C725.5 638 726 504 636 464C546 424 445.5 484.5 355 434.5C264.5 384.5 231.5 232 332 159.5C432.5 87.0001 574.5 180 678 159.5C781.5 139 849 30.5001 975.5 82.5001C1102 134.5 1039 367 1086.5 418Z" fill="url(#paint0_linear_1_2)" fill-opacity="0.3"/>
  <path d="M1146.5 546C1184.5 589.2 1252 625.667 1223 683.5C1173.83 778.5 1034.5 815 927 781.5C819.5 748 786 634 696 594C606 554 511.5 614.5 421 564.5C330.5 514.5 297.5 362 398 289.5C498.5 217 634.5 310 738 289.5C841.5 269 913 160.5 1039.5 212.5C1166 264.5 1099 495 1146.5 546Z" fill="url(#paint1_linear_1_2)" fill-opacity="0.2"/>
  <defs>
    <linearGradient id="paint0_linear_1_2" x1="270.5" y1="189" x2="1138" y2="562.5" gradientUnits="userSpaceOnUse">
      <stop stop-color="#4A67F5"/>
      <stop offset="1" stop-color="#8658F7"/>
    </linearGradient>
    <linearGradient id="paint1_linear_1_2" x1="336.5" y1="319" x2="1204" y2="692.5" gradientUnits="userSpaceOnUse">
      <stop stop-color="#4A67F5"/>
      <stop offset="1" stop-color="#8658F7"/>
    </linearGradient>
  </defs>
</svg>